<?xml version="1.0" encoding="UTF-8" standalone="no"?>
<svg
   version="1.1"
   id="svg1"
   xmlns="http://www.w3.org/2000/svg"
   xmlns:svg="http://www.w3.org/2000/svg"
   viewBox="14 12 315 262"
   width="100%"
   height="100%">
  <defs>
    <style
       type="text/css"
       id="style1">
      .land
      {
      fill: #CCCCCC;
      fill-opacity: 1;
      stroke:white;
      stroke-opacity: 1;
      stroke-width:0.5;
      }
    </style>
  </defs>
  <g
     id="g1"
     style="display:inline">
    <path id="chest1" title="chest1" class="muscle" d="m 93.273305,82.263575 c -1.717147,-0.931567 -1.747152,-1.051263 -1.706402,-6.807179 l 0.04148,-5.858938 3.556917,-3.019068 c 5.95225,-5.0522 9.27982,-4.068775 15.09834,4.462149 4.5232,6.631768 4.43321,7.365886 -1.24618,10.166521 -3.63512,1.792559 -4.79754,2.052395 -9.082459,2.030204 -3.106938,-0.01609 -5.556533,-0.374129 -6.661695,-0.973689 z" />
    <path id="chest2" title="chest2" class="muscle"  d="m 73.029874,83.199584 c -1.705755,-0.265227 -6.109765,-2.499225 -8.167022,-4.142841 -0.988028,-0.789372 -1.823491,-1.454026 -1.856584,-1.477011 -0.03309,-0.02298 1.276749,-2.129294 2.91076,-4.680689 2.815577,-4.39633 3.106805,-4.769147 5.569439,-7.129759 l 2.598511,-2.490859 h 2.407129 2.40713 l 2.788995,2.116363 c 1.533948,1.163999 3.063115,2.33777 3.398152,2.608379 0.570724,0.460976 0.647449,0.71865 1.21613,4.084287 0.460451,2.725088 0.607026,4.283125 0.607179,6.454109 l 2.01e-4,2.861838 -1.95829,1.009298 -1.958293,1.009297 -4.451748,-0.0288 c -2.448462,-0.01584 -4.928722,-0.102965 -5.511689,-0.193611 z" />
    <path id="obliques1" title="obliques1" class="muscle" d="m 75.891336,131.48338 c -1.457625,-1.42706 -4.094112,-4.00198 -5.858859,-5.72203 l -3.208631,-3.12736 1.358829,-11.75734 1.358829,-11.757332 -1.799728,-4.586253 c -1.736625,-4.425446 -1.814836,-4.69993 -2.230591,-7.828346 -0.537304,-4.043036 -0.539942,-4.221861 -0.05988,-4.0589 0.204039,0.06926 2.278872,0.781461 4.61074,1.582662 l 4.23976,1.45673 0.06717,0.677893 c 0.03694,0.372842 -0.08309,5.257725 -0.26674,10.855296 l -0.333912,10.1774 2.125289,12.01839 c 1.168908,6.61011 2.314433,12.52769 2.545611,13.15018 0.455866,1.22751 0.506159,1.51924 0.261333,1.51587 -0.08745,-0.001 -1.351593,-1.16979 -2.809218,-2.59686 z" />
    <path id="obliques2" title="obliques2" class="muscle" d="m 97.09105,136.06429 c 2.94e-4,-0.099 0.245596,-1.08622 0.545116,-2.19385 0.29952,-1.10764 1.261147,-5.49579 2.136949,-9.75145 l 1.592365,-7.73756 0.48447,-15.11159 c 0.26646,-8.311369 0.52414,-15.151248 0.57263,-15.199731 0.0485,-0.04848 1.60079,-0.618189 3.44958,-1.266014 1.84879,-0.647826 3.92832,-1.432266 4.62117,-1.7432 0.88181,-0.395733 1.3043,-0.493227 1.40828,-0.324978 0.0817,0.132197 0.41306,1.324869 0.73635,2.650383 l 0.58779,2.410026 -1.93283,3.57198 -1.93284,3.57198 0.13536,8.282704 c 0.0744,4.55549 0.26927,10.95376 0.43295,14.21838 l 0.2976,5.93566 -5.34881,5.36673 c -5.347607,5.36552 -7.787137,7.65917 -7.78613,7.32053 z" />
    <path id="abs1" title="abs1" class="muscle" d="m 95.288617,96.126787 c -1.505388,-0.142774 -4.747233,-0.74501 -4.915344,-0.913121 -0.03493,-0.03493 -0.356886,-2.209882 -0.715457,-4.833226 l -0.651946,-4.769717 0.459465,-0.778736 c 0.306579,-0.519612 0.61121,-0.776584 0.915499,-0.772269 0.775919,0.011 9.28363,1.845331 9.45138,2.037791 0.139265,0.159779 1.294376,7.596503 1.288386,8.294782 -10e-4,0.148284 -0.58947,0.649106 -1.307107,1.112937 -1.408823,0.910566 -1.436922,0.914426 -4.524876,0.621559 z" />
    <path id="abs2" title="abs2" class="muscle" d="m 77.110644,95.668965 -1.006943,-0.433287 v -4.849255 -4.849255 l 2.384865,-0.0028 c 1.64236,-0.0019 3.506873,-0.193075 5.988661,-0.613949 1.982088,-0.336133 3.63619,-0.580715 3.675781,-0.543515 0.03959,0.0372 -0.139069,2.292915 -0.397023,5.012701 -0.388544,4.096682 -0.536058,5.015574 -0.85983,5.356043 -0.306065,0.32185 -1.116441,0.514679 -3.736743,0.889157 -4.080009,0.58309 -4.764098,0.586953 -6.048768,0.03416 z" />
    <path id="abs3" title="abs3" class="muscle" d="m 76.78125,106.67288 -0.677549,-0.69905 v -3.93891 -3.938917 l 3.762787,-0.135899 c 2.069533,-0.07474 4.740582,-0.193131 5.935665,-0.263081 l 2.172877,-0.127182 -0.0023,4.318079 -0.0023,4.31808 -1.555778,0.58297 c -1.479203,0.55427 -1.737895,0.58296 -5.255818,0.58296 h -3.70004 z" />
    <path id="abs4" title="abs4" class="muscle" d="m 89.816589,106.77737 -0.569631,-0.59457 v -4.17516 -4.175167 h 2.298011 c 1.263907,0 3.887258,0.06268 5.829671,0.139285 l 3.53166,0.139285 v 4.051487 4.05149 l -1.536914,0.5826 c -1.46604,0.55575 -1.708602,0.58245 -5.260039,0.57896 l -3.723127,-0.004 z" />
    <path id="abs5" title="abs5" class="muscle" d="m 84.901203,117.19493 c -2.102648,-0.45258 -7.256813,-1.88381 -7.441009,-2.06624 -0.325258,-0.32214 -1.356493,-4.3388 -1.356493,-5.28353 v -0.77732 h 5.273202 c 2.900261,0 5.57131,-0.0596 5.935664,-0.13249 l 0.662463,-0.1325 v 2.70819 c 0,2.43589 -0.05861,2.8646 -0.582967,4.26396 -0.575546,1.53597 -0.592412,1.55549 -1.324925,1.53348 -0.408077,-0.0123 -0.932748,-0.0634 -1.165935,-0.11355 z" />
    <path id="abs6" title="abs6" class="muscle" d="m 89.721878,113.95283 -0.657251,-3.50707 0.586108,-0.54868 0.586109,-0.54868 5.274242,-0.13011 c 2.900834,-0.0716 5.303854,-0.10048 5.340054,-0.0643 0.0362,0.0362 -0.12737,0.51649 -0.36349,1.06733 -0.29788,0.69493 -0.42937,1.46665 -0.42951,2.52087 l -2.1e-4,1.51933 -1.720251,0.92865 c -1.39566,0.75342 -2.308798,1.05516 -4.839401,1.59917 l -3.11915,0.67053 z" />
    <path id="abs7" title="abs7" class="muscle" d="m 84.357694,142.17629 c -0.872701,-1.08627 -1.171806,-1.80243 -3.053034,-7.30995 l -2.085549,-6.10569 -0.67325,-5.65964 c -0.370288,-3.11281 -0.654065,-5.68731 -0.630615,-5.72112 0.02345,-0.0338 0.772664,0.22853 1.66492,0.58297 1.512262,0.60073 1.807665,0.64444 4.355766,0.64444 h 2.733482 l 0.121845,0.58297 c 0.06701,0.32063 0.361845,2.08693 0.655179,3.92511 l 0.533334,3.34215 -0.638335,8.19427 c -0.351085,4.50684 -0.638335,8.32113 -0.638335,8.47618 0,0.17975 -0.249689,0.2766 -0.688961,0.26724 -0.575297,-0.0123 -0.848576,-0.21336 -1.656447,-1.21893 z" />
    <path id="abs8" title="abs8" class="muscle" d="m 90.430887,143.15781 c -0.04653,-0.15283 -0.273029,-3.71209 -0.503341,-7.90945 l -0.41875,-7.63157 0.570478,-4.18153 c 0.313763,-2.29985 0.612579,-4.21521 0.664036,-4.25637 0.05146,-0.0412 1.762964,-0.4198 3.803349,-0.84141 3.484467,-0.72002 3.73122,-0.74477 4.06262,-0.40737 0.329431,0.33539 0.249297,0.90046 -1.208355,8.52075 l -1.561184,8.16154 -1.875089,4.34575 -1.875089,4.34575 -0.787041,0.0659 c -0.51198,0.0429 -0.816606,-0.0312 -0.871634,-0.21199 z" />
    <path id="abductor1" title="abductor1" class="muscle" d="m 61.55618,146.64272 c 0.05952,-0.20404 0.46148,-2.01003 0.893237,-4.01331 0.503663,-2.33692 1.514679,-5.85034 2.820897,-9.80303 l 2.035884,-6.16069 0.900949,0.54056 c 1.076085,0.64565 1.04346,0.17756 0.501415,7.19416 l -0.376659,4.87572 -2.420745,3.54016 c -2.132311,3.11835 -2.522624,3.57932 -3.275784,3.86879 -1.085735,0.41728 -1.211839,0.41233 -1.079194,-0.0424 z" />
    <path id="abductor2" title="abductor2" class="muscle" d="m 112.26449,142.87388 -3.09066,-3.50385 0.001,-5.87662 0.001,-5.87662 0.66783,-0.38017 c 0.3673,-0.2091 0.73454,-0.3045 0.81609,-0.21199 0.37261,0.42269 4.16669,13.23212 4.77473,16.12028 0.63106,2.9975 0.65292,3.23282 0.30029,3.23282 -0.22575,0 -1.63631,-1.42393 -3.47096,-3.50385 z" />
    <path id="biceps1" title="biceps1" class="muscle" d="m 49.181222,97.601147 v -6.802954 l 1.079201,-3.136534 1.079202,-3.136534 4.361827,-2.99191 4.361826,-2.991911 1.819561,0.976305 c 1.000759,0.536967 1.902486,1.053995 2.003838,1.148951 0.103678,0.09713 -0.108561,2.60966 -0.485254,5.744525 l -0.669531,5.57188 -1.846613,4.229811 -1.846614,4.229814 -4.62981,1.98075 c -2.546396,1.08942 -4.764321,1.98076 -4.928722,1.98076 -0.251014,0 -0.298911,-1.09011 -0.298911,-6.802953 z" />
    <path id="biceps2" title="biceps2" class="muscle" d="m 123.94863,102.59824 c -3.18298,-1.36012 -3.61786,-1.62626 -5.61125,-3.434015 l -1.11787,-1.01377 -1.58778,-5.460668 -1.58777,-5.460668 0.21697,-2.488883 c 0.41776,-4.792102 0.29014,-4.406158 1.77054,-5.354495 0.71715,-0.459402 1.4223,-0.837279 1.56701,-0.839727 0.1447,-0.0024 1.98565,1.163829 4.091,2.591728 l 3.8279,2.596178 1.38382,2.650525 1.38381,2.650525 0.40315,6.041659 c 0.56474,8.463351 0.57867,8.109791 -0.3366,8.546251 -0.41204,0.19648 -0.86516,0.34804 -1.00695,0.33679 -0.14178,-0.0113 -1.66998,-0.62389 -3.39598,-1.36143 z" />
    <path id="calves1" title="calves1" class="muscle" d="m 218.13568,229.78068 c 0,-0.31525 0.28999,-3.30283 0.64443,-6.63907 l 0.64443,-6.06587 2.85337,-7.1549 2.85337,-7.1549 v -3.04184 -3.04183 l 1.03695,-0.64461 1.03695,-0.6446 1.11682,1.13087 1.11682,1.13087 -0.13982,3.7748 -0.13981,3.77481 -2.42271,9.35938 c -2.31702,8.9511 -2.47416,9.45573 -3.60203,11.56782 l -1.17932,2.20842 -1.90973,1.00692 -1.90972,1.00691 z" />
    <path id="calves2" title="calves2" class="muscle" d="m 229.28582,229.43094 c -2.4593,-2.67408 -2.92619,-3.36203 -2.92456,-4.30932 0.005,-2.73244 5.34521,-22.80469 6.38688,-24.00496 0.11541,-0.13299 0.85288,0.94878 1.63883,2.40392 l 1.429,2.6457 -0.7366,11.279 -0.73661,11.27899 -1.06522,1.94437 -1.06523,1.94437 z" />
    <path id="calves3" title="calves3" class="muscle" d="m 274.54697,230.18539 c -0.53186,-0.94584 -0.74184,-2.86352 -1.32928,-12.1401 l -0.69764,-11.01684 1.36126,-3.27538 1.36127,-3.27538 1.38884,3.81887 c 0.76386,2.10038 2.30876,7.75692 3.4331,12.57008 l 2.04425,8.7512 -1.91282,2.56676 c -1.05205,1.41172 -1.9392,2.60412 -1.97145,2.64978 -0.0323,0.0456 -0.73078,0.17104 -1.55227,0.27864 -1.42134,0.18616 -1.52419,0.14127 -2.12526,-0.92763 z" />
    <path id="calves4" title="calves4" class="muscle" d="m 285.10769,225.93095 c -1.78469,-3.09551 -1.92828,-3.51541 -2.45295,-7.17325 -0.31952,-2.22761 -1.43937,-6.93566 -2.62475,-11.03486 l -2.06745,-7.1496 1.09201,-2.64805 c 0.60061,-1.45642 1.19049,-2.7519 1.31084,-2.87884 0.12035,-0.12694 0.71292,0.21299 1.31683,0.7554 1.07033,0.96134 1.09805,1.05656 1.09951,3.77822 0.001,2.70912 0.087,3.00769 2.87994,10.05579 l 2.87845,7.26377 0.49755,5.06775 c 0.27365,2.78726 0.498,5.56185 0.49855,6.16575 9.5e-4,1.04484 -0.0604,1.09772 -1.26593,1.09195 -1.24574,-0.006 -1.29867,-0.0611 -3.1626,-3.29403 z" />
    <path id="forearm1" title="forearm1" class="muscle" d="m 34.41228,131.63652 c -1.030673,-0.89401 -1.839052,-1.80355 -1.796398,-2.02122 0.208191,-1.06243 8.140135,-21.26265 9.094311,-23.16041 0.855683,-1.70187 1.531154,-2.57599 3.089934,-3.99866 1.347094,-1.22947 2.054098,-1.70925 2.177277,-1.47751 0.100326,0.18874 0.4059,1.54791 0.679053,3.02037 0.494644,2.66643 0.499889,2.67721 1.303448,2.67721 0.443743,0 2.415914,-0.6796 4.382602,-1.51022 3.486992,-1.47271 4.323628,-1.72547 4.317225,-1.30428 -0.01421,0.93491 -1.832392,5.9131 -2.839914,7.77572 -1.160625,2.14566 -1.826543,2.87512 -9.089727,9.95709 l -7.837353,7.64181 -0.0017,1.55679 c -0.0016,1.43216 -0.0659,1.59329 -0.803254,2.01278 l -0.801518,0.45598 z" />
    <path id="forearm2" title="forearm2" class="muscle" d="m 138.25358,128.3305 -3.02044,-4.70202 -5.90358,-5.12335 -5.90358,-5.12334 -1.61481,-4.60734 c -1.0989,-3.13534 -1.52523,-4.69694 -1.33441,-4.88775 0.19082,-0.19082 1.45969,0.2157 3.97155,1.2724 l 3.69114,1.55282 1.00693,-0.5941 1.00694,-0.59411 v -2.44414 -2.44415 l 0.8924,0.0101 c 0.81728,0.009 1.09444,0.28308 3.29261,3.25335 l 2.40022,3.24327 4.12118,11.25317 c 2.26665,6.18924 4.12118,11.52274 4.12118,11.85223 0,0.42603 -0.43644,0.87826 -1.51092,1.5656 -0.83101,0.53159 -1.66506,1.02342 -1.85345,1.09296 -0.20688,0.0764 -1.53868,-1.73567 -3.36296,-4.57559 z" />
    <path id="shoulder1_1" title="shoulder1_1" class="muscle" d="m 58.96418,62.360607 -2.895314,1.113581 -2.839634,6.90421 -0.05568,3.062351 8.964337,-12.47212 z" />
    <path id="shoulder1_2" title="shoulder1_2" class="muscle" d="m 64.699129,60.634554 h 8.12915 l 0.05568,1.280619 -3.396425,2.115807 -7.850755,11.859651 -5.957665,2.672597 -1.224941,0.779508 -1.22494,-1.169262 0.05568,-2.616918 z" />
    <path id="shoulder2_1" title="shoulder2_1" class="muscle" d="m 114.0865,60.551035 1.41982,-0.02784 6.62581,4.036736 2.89532,6.93205 v 1.642533 z" />
    <path id="shoulder2_2" title="shoulder2_2" class="muscle" d="m 103.75803,60.606714 8.35186,-0.02784 12.86188,14.39305 0.0278,1.28062 -1.1971,3.090191 -1.08575,-0.05568 -6.87637,-3.7305 -7.01556,-10.606871 z" />
    <path id="glutes1" title="glutes1" class="muscle" d="m 235.42009,153.71886 -3.05704,-1.55561 -1.13039,-2.53792 c -1.03409,-2.32174 -1.13038,-2.73516 -1.13038,-4.85326 0,-2.1952 0.11245,-2.63064 2.16732,-8.39251 2.36981,-6.64495 2.15333,-6.28448 6.50127,-10.82554 l 2.82626,-2.95179 1.32314,0.0104 c 1.11086,0.009 1.75659,0.26718 4.0248,1.61075 2.70082,1.59981 2.70218,1.60116 4.3224,4.31429 l 1.62073,2.71397 0.002,8.14547 0.002,8.14547 -1.26545,3.584 c -0.82469,2.3357 -1.42243,3.62758 -1.71615,3.70913 -0.24789,0.0688 -2.92198,0.19568 -5.94241,0.28193 l -5.49171,0.1568 z" />
    <path id="glutes2" title="glutes2" class="muscle" d="m 257.9849,154.93462 c -0.0593,-0.18878 -0.25737,-0.83748 -0.44016,-1.44157 -0.1828,-0.60409 -0.81,-2.30557 -1.39379,-3.78107 l -1.06143,-2.68272 0.004,-7.75151 0.004,-7.75151 1.4499,-2.723 1.44991,-2.723 3.81633,-2.16234 3.81633,-2.16235 3.63568,3.6282 3.63569,3.6282 2.17817,5.65051 c 1.82569,4.7361 2.24961,6.14725 2.61955,8.72011 l 0.44137,3.06961 -1.16024,2.83397 -1.16024,2.83397 -3.15773,1.55972 -3.15772,1.55972 -5.70626,0.0191 c -4.3381,0.0145 -5.73211,-0.0632 -5.81408,-0.32409 z" />
    <path id="harmstrings1" title="harmstrings1" class="muscle" d="m 235.22459,200.51574 -2.11131,-4.46201 0.005,-3.05111 c 0.005,-3.043 0.008,-3.06017 1.41485,-6.45275 1.40598,-3.39161 1.41244,-3.42106 2.19225,-9.99168 0.77104,-6.49683 0.80498,-6.65403 2.39937,-11.11444 1.85892,-5.20043 1.64758,-5.35857 2.37705,1.77855 0.23154,2.26533 0.91248,7.02897 1.51322,10.58587 l 1.09224,6.46708 -1.19261,5.75195 c -1.10014,5.30596 -1.34791,6.10856 -3.19554,10.35125 -1.10161,2.52961 -2.08843,4.5993 -2.19293,4.5993 -0.1045,0 -1.14009,-2.00791 -2.30131,-4.46201 z" />
    <path id="harmstrings2" title="harmstrings2" class="muscle" d="m 268.90308,200.92762 c -1.32778,-2.82133 -1.95385,-4.67366 -3.22503,-9.54183 l -1.57739,-6.04087 1.72725,-11.1957 c 1.67005,-10.82489 1.7438,-11.17916 2.22679,-10.69617 0.88855,0.88855 2.65299,7.94825 3.38118,13.52845 0.6049,4.63539 0.79881,5.46589 2.046,8.7625 l 1.37777,3.64176 0.003,3.74587 0.003,3.74586 -1.71891,3.77298 c -1.16002,2.54624 -1.86141,3.77381 -2.15721,3.77554 -0.29321,0.002 -0.9837,-1.15631 -2.08594,-3.49839 z" />
    <path id="lats1" title="lats1" class="muscle" d="m 266.23702,114.58825 c -0.83491,-1.85259 -1.1101,-2.95068 -1.56554,-6.24681 -0.38868,-2.81304 -0.84535,-4.82162 -1.53977,-6.77237 l -0.9872,-2.773256 -2.90968,-1.73134 c -1.60032,-0.952236 -2.94041,-1.753201 -2.97796,-1.779922 -0.0731,-0.05199 8.50964,-16.074345 9.14711,-17.075956 0.3799,-0.596919 0.38321,-0.595948 4.98656,1.462164 l 4.6064,2.059479 1.89929,-0.569687 c 1.04461,-0.313327 1.95173,-0.517246 2.01582,-0.453152 0.15102,0.151019 -2.3667,18.189635 -2.67162,19.141265 -0.1275,0.397905 -1.83343,2.942675 -3.79097,5.655045 l -3.55915,4.93159 -0.64746,3.20032 c -0.3561,1.76018 -0.72518,3.20032 -0.82016,3.20032 -0.095,0 -0.62854,-1.01146 -1.18567,-2.24769 z" />
    <path id="lats2" title="lats2" class="muscle" d="m 240.44967,117.17917 c -0.0656,-0.11326 -0.33783,-1.68869 -0.60497,-3.50096 l -0.48571,-3.29502 -3.71877,-5.04764 -3.71877,-5.04765 -1.15834,-9.642654 c -0.63709,-5.303459 -1.1126,-9.689729 -1.05668,-9.747267 0.0559,-0.05754 1.18726,0.105529 2.51409,0.36237 l 2.41241,0.466982 3.77109,-1.960192 c 2.0741,-1.078106 3.88551,-1.889477 4.02536,-1.803046 0.13985,0.08643 1.30343,2.102866 2.58574,4.480967 1.28231,2.3781 3.32294,6.146334 4.53474,8.373853 l 2.20326,4.050034 -3.95841,3.638348 -3.9584,3.638345 -0.002,4.2895 -0.002,4.2895 -1.40269,3.33024 c -1.29882,3.08364 -1.66656,3.66414 -1.97917,3.12429 z" />
    <path id="lats3" title="lats3" class="muscle" d="m 269.50524,77.293939 c -4.01494,-1.852016 -4.1207,-1.922668 -4.19509,-2.802528 -0.042,-0.496438 0.41387,-3.527692 1.01298,-6.736119 0.92532,-4.955297 1.2276,-6.078907 2.00794,-7.46359 l 0.91863,-1.630086 5.48218,4.39164 c 3.01519,2.415402 5.65322,4.559392 5.86228,4.764422 0.32358,0.317339 0.28819,0.978427 -0.23789,4.444876 l -0.618,4.072093 -1.40024,1.441571 c -1.38885,1.429846 -1.41371,1.441474 -3.05713,1.429603 -1.45671,-0.01052 -2.15451,-0.241512 -5.77566,-1.911882 z" />
    <path id="lats4" title="lats4" class="muscle" d="m 229.84481,77.538721 -1.47798,-1.67907 -0.24993,-2.92023 c -0.13747,-1.606127 -0.16919,-3.696623 -0.0705,-4.645546 l 0.17945,-1.725316 2.94665,-1.477804 c 2.68409,-1.346118 3.14959,-1.700086 5.224,-3.972324 1.25253,-1.371986 2.37104,-2.494521 2.48556,-2.494521 0.11453,0 0.82969,1.513651 1.58926,3.363667 l 1.38102,3.363667 0.19708,5.092914 0.19707,5.092914 -4.08137,1.841006 c -3.29742,1.487384 -4.34653,1.840881 -5.46185,1.840359 -1.34569,-6.31e-4 -1.41776,-0.04298 -2.85847,-1.679716 z" />
    <path id="lower_back" title="lower_back" class="muscle" d="m 251.8016,125.64602 -1.7777,-2.40611 -3.85129,-1.72824 c -2.11821,-0.95053 -3.88975,-1.76058 -3.93675,-1.80011 -0.047,-0.0395 0.6017,-1.44203 1.44157,-3.11668 l 1.52703,-3.04481 v -3.99054 -3.99055 l 1.20996,-2.58924 1.20996,-2.58924 3.53578,-1.771784 3.53578,-1.771783 3.05233,1.908426 3.05233,1.908421 1.12594,3.28392 c 1.05451,3.07556 1.12595,3.47814 1.12595,6.34524 v 3.06132 l 1.38937,2.57728 c 1.00239,1.85942 1.36568,2.81795 1.30428,3.44131 -0.0831,0.84325 -0.14292,0.87851 -2.49159,1.46727 -2.56958,0.64415 -2.57658,0.64923 -8.7142,6.32352 l -0.96105,0.8885 z" />
    <path id="quads1" title="quads1" class="muscle" d="m 69.187812,176.179 -3.106064,-6.93864 -0.92201,-4.69533 -0.92201,-4.69532 0.03325,-5.48641 0.03326,-5.48641 2.748588,-4.04807 c 1.557058,-2.29322 2.805307,-3.9405 2.879424,-3.7999 0.424477,0.80518 3.183683,11.03546 4.484097,16.62564 l 1.528218,6.56946 -1.353133,9.07003 c -1.301298,8.72258 -1.544097,9.8236 -2.16633,9.8236 -0.07217,0 -1.528956,-3.12239 -3.237291,-6.93865 z" />
    <path id="quads2" title="quads2" class="muscle" d="m 103.32212,173.22708 -1.23267,-10.13885 2.66696,-10.71435 c 2.47969,-9.96202 2.71056,-10.71435 3.28795,-10.71435 0.455,0 1.24408,0.83493 2.95213,3.12368 l 2.33114,3.12367 v 7.79944 7.79943 l -1.28862,4.15058 c -0.70874,2.28283 -2.42376,6.74937 -3.81115,9.92567 -3.58232,8.20137 -3.35457,8.40355 -4.90574,-4.35492 z" />
    <path id="quads3" title="quads3" class="muscle" d="m 63.207476,175.64328 -3.09206,-8.57929 0.01294,-4.00131 c 0.0081,-2.49066 0.254114,-5.73881 0.651749,-8.60345 0.635848,-4.58079 0.642355,-4.60255 1.402343,-4.69095 l 0.76353,-0.0888 -0.568679,1.89555 -0.568678,1.89555 1.050348,7.54134 1.050347,7.54135 2.514225,6.18412 2.514225,6.18412 -0.55209,1.6539 c -0.488655,1.46386 -0.640219,1.6535 -1.319112,1.65053 -0.744172,-0.003 -0.859139,-0.25895 -3.859084,-8.58266 z" />
    <path id="quads4" title="quads4" class="muscle" d="m 109.59452,182.95685 c -0.34954,-1.24843 -0.29867,-1.44522 2.69514,-10.42678 l 3.0514,-9.15434 v -6.89761 -6.8976 l 0.84234,0.85737 0.84234,0.85737 0.18772,8.91664 0.18773,8.91664 -2.89968,7.44878 c -1.59483,4.09683 -2.89969,7.4945 -2.89969,7.55038 0,0.0559 -0.37148,0.1016 -0.82552,0.1016 -0.73084,0 -0.86637,-0.14593 -1.18178,-1.27245 z" />
    <path id="trapezius1" title="trapezius1" class="muscle" d="m 248.88589,84.789969 -4.66311,-9.429974 -0.48434,-6.605033 -0.48435,-6.605033 -2.00779,-3.401861 c -1.10429,-1.871023 -1.93227,-3.477383 -1.83997,-3.569689 0.0923,-0.0923 3.42318,-1.09883 7.40193,-2.236722 l 7.23411,-2.068894 7.32079,2.073691 c 4.02643,1.14053 7.3833,2.136205 7.45971,2.21261 0.0764,0.07641 -0.7659,1.870017 -1.87178,3.985803 l -2.01069,3.846884 -0.97046,7.63015 -0.97047,7.63015 -4.20152,7.902063 c -2.90348,5.460735 -4.36333,7.92736 -4.72525,7.983946 -0.42393,0.06628 -1.41215,-1.714765 -5.18681,-9.348091 z" />
    <path id="trapezius2" title="trapezius2" class="muscle" d="m 259.37357,50.55139 -4.2426,-1.318425 v -2.673336 -2.673337 l 1.07863,-0.289896 c 2.32073,-0.62373 2.09491,-0.787776 5.22515,3.795836 1.59527,2.335958 2.9005,4.309843 2.9005,4.386412 0,0.267193 -0.74813,0.08215 -4.96168,-1.227254 z" />
    <path id="trapezius3" title="trapezius3" class="muscle" d="m 242.91895,51.592244 c 0.30958,-0.391305 1.97104,-2.354931 3.69214,-4.363611 l 3.12928,-3.652148 h 1.54477 1.54477 v 2.86525 2.865249 l -1.07863,0.291704 c -1.72713,0.467088 -8.21597,2.319026 -8.83233,2.520778 -0.55873,0.182889 -0.55873,0.179016 0,-0.527222 z" />
    <path id="trapezius4" title="trapezius4" class="muscle" d="m 93.193276,60.147203 c 0,-0.344995 3.065109,-7.336676 3.349069,-7.639411 0.06663,-0.07103 1.410992,1.155859 2.987476,2.726428 3.262219,3.249981 3.342969,2.95178 -1.009243,3.727443 -1.57864,0.28135 -3.42309,0.748519 -4.098778,1.038153 -0.942291,0.403913 -1.228524,0.438252 -1.228524,0.147387 z" />
    <path id="trapezius5" title="trapezius5" class="muscle" d="m 80.02289,59.258056 c -2.102262,-0.516275 -3.877872,-0.994258 -3.945798,-1.062184 -0.06793,-0.06793 1.096111,-1.338047 2.586752,-2.82249 2.629752,-2.618818 2.718315,-2.678183 2.981625,-1.998628 0.149253,0.385196 0.867041,1.978523 1.595085,3.540726 0.728043,1.562203 1.323715,2.95363 1.323715,3.092061 0,0.348286 -0.217313,0.312421 -4.541379,-0.749485 z" />
    <path id="triceps1" title="triceps1" class="muscle" d="m 216.72933,99.736939 c 0.6469,-1.528276 1.58455,-7.690102 1.58455,-10.412963 v -0.876654 h -2.09142 -2.09142 l -0.64861,2.516794 c -0.46929,1.820976 -0.64654,3.322748 -0.6411,5.431957 0.007,2.784904 -0.0242,2.93592 -0.70145,3.379694 -0.38993,0.255493 -0.77824,0.464533 -0.8629,0.464533 -0.0847,0 -0.15394,-1.609982 -0.15394,-3.577736 v -3.577735 l 2.00348,-5.799962 c 1.15685,-3.34901 2.65624,-7.033322 3.54818,-8.718601 l 1.5447,-2.918638 2.85166,-1.499092 c 1.56842,-0.824501 3.23998,-1.503738 3.71457,-1.509416 l 0.8629,-0.01032 1.19326,5.168409 1.19325,5.168409 -1.44138,4.682381 c -1.28777,4.183388 -1.72146,5.164403 -4.06959,9.20553 l -2.62821,4.523151 -1.9333,0.007 -1.93331,0.007 z" />
    <path id="triceps2" title="triceps2" class="muscle" d="m 286.58645,97.852344 -2.6291,-3.508534 -1.76733,-5.68358 -1.76732,-5.68358 0.87433,-4.527412 c 0.48088,-2.490076 0.94087,-4.81864 1.02221,-5.174587 0.23656,-1.035248 1.41433,-0.820735 4.68885,0.85401 l 2.96995,1.518967 2.46397,4.889771 c 2.22573,4.416984 2.59388,5.390368 3.80758,10.067175 l 1.3436,5.177404 -0.44958,2.213322 -0.44959,2.21332 -0.76455,-0.466189 c -0.75594,-0.46094 -0.76596,-0.510175 -0.88934,-4.370574 -0.0824,-2.577904 -0.2906,-4.417417 -0.61285,-5.414459 l -0.48806,-1.510076 h -2.14611 c -1.18036,0 -2.14611,0.03978 -2.14611,0.08839 0,1.501866 1.32824,9.977929 1.73444,11.0682 0.31165,0.836478 0.56663,1.580728 0.56663,1.653888 0,0.0732 -0.61482,0.12629 -1.36626,0.11806 l -1.36626,-0.015 z" />
    <path id="shoulder3" title="shoulder3" class="muscle" d="m 216.01281,74.150808 c 0,-0.145208 0.25861,-2.132942 0.5747,-4.417185 0.54478,-3.936928 0.65213,-4.30293 2.06186,-7.029505 l 1.48717,-2.876336 3.76271,-1.76955 3.76272,-1.76955 4.58326,-0.454514 c 2.5208,-0.249982 4.64029,-0.397493 4.70998,-0.327802 0.0697,0.06969 -0.0512,0.873904 -0.26876,1.787139 l -0.39547,1.660429 -4.44689,2.812845 c -2.44578,1.547065 -4.55918,2.925142 -4.69643,3.062393 -0.13725,0.137251 -0.5307,1.395113 -0.87434,2.79525 l -0.62479,2.545702 -4.45832,1.967488 c -2.45207,1.082119 -4.62011,2.037176 -4.81786,2.12235 -0.19775,0.08517 -0.35954,0.03606 -0.35954,-0.109154 z" />
    <path id="shoulder4" title="shoulder4" class="muscle" d="m 287.80485,72.041008 c -2.4698,-1.350144 -3.40218,-1.714601 -4.38641,-1.714601 h -1.24991 v -2.541561 -2.541561 l -2.93274,-1.533687 c -2.03185,-1.06256 -3.71063,-2.231143 -5.46504,-3.804161 -2.25337,-2.020391 -2.5323,-2.379401 -2.5323,-3.259408 v -0.988934 l 4.2426,0.01254 4.24259,0.01254 4.2927,2.216617 4.2927,2.216617 1.83934,4.170686 1.83933,4.170687 -0.23554,2.566003 c -0.12955,1.411301 -0.36498,2.603536 -0.52318,2.64941 -0.1582,0.04587 -1.69906,-0.688163 -3.42414,-1.631194 z" />
    <path id="forearm3" title="forearm3" class="muscle" d="m 196.56177,137.77358 c -1.01782,-0.23854 -1.92481,-0.50792 -2.01551,-0.59863 -0.0907,-0.0907 0.15647,-0.98378 0.5493,-1.9846 0.39283,-1.00082 1.898,-5.71362 3.34481,-10.47289 1.814,-5.96709 3.5046,-10.39675 5.44616,-14.26993 2.91424,-5.81354 4.97397,-9.24549 5.54881,-9.24549 0.18251,0 0.57886,0.54219 0.88079,1.20485 0.42253,0.92734 0.83641,1.17071 1.79693,1.05664 0.99763,-0.11849 1.36375,-0.52501 1.82524,-2.02668 l 0.5773,-1.878459 0.0492,1.995869 c 0.0483,1.95853 0.08,1.99586 1.69289,1.99586 1.59572,0 1.64365,0.0531 1.64365,1.82003 0,2.85979 -1.92443,6.53919 -8.61781,16.47673 -4.43825,6.58939 -6.59702,10.26861 -7.53655,12.84464 -1.4402,3.94879 -1.45343,3.95665 -5.18525,3.08206 z" />
    <path id="forearm4" title="forearm4" class="muscle" d="m 305.82741,133.48808 c -0.9986,-2.13088 -4.21898,-7.46688 -7.15639,-11.85778 -5.34234,-7.98582 -8.44892,-14.12937 -8.44892,-16.70852 0,-1.25454 0.14035,-1.37166 1.64366,-1.37166 1.00633,0 1.64038,-0.22761 1.63523,-0.58702 -0.0107,-0.74792 -1.29501,-8.623202 -1.68484,-10.331531 -0.17696,-0.775502 -0.0978,-1.291441 0.19802,-1.291441 0.66262,0 0.85462,0.821527 1.5118,6.468555 0.46527,3.998107 0.73106,4.943667 1.551,5.517977 1.37346,0.96201 1.50775,0.91214 2.68857,-0.99847 l 1.04544,-1.69155 1.85201,2.91287 c 2.50268,3.93624 7.45116,15.95697 10.2652,24.93597 1.26778,4.04519 2.30505,7.46535 2.30505,7.60035 0,0.41549 -2.88296,1.27657 -4.27402,1.27657 -1.18875,0 -1.49196,-0.37509 -3.13181,-3.87432 z" />
    <path id="neck" title="neck" class="muscle" d="m 88.323357,72.965088 c -0.04882,-4.894938 -0.836851,-6.571194 -4.110854,-8.744382 -2.938058,-1.950197 -2.473751,-2.572485 0.815588,-1.093091 l 2.085501,0.937963 0.141606,-1.083153 c 0.07788,-0.595735 -1.004573,-4.127161 -2.405457,-7.847614 -1.400886,-3.720453 -2.49076,-6.830163 -2.421944,-6.910467 0.06882,-0.0803 1.624913,0.309542 3.457994,0.866323 l 3.332874,1.012329 2.903318,-0.980466 c 1.596825,-0.539256 2.988548,-0.895235 3.092718,-0.791065 0.395342,0.395342 -1.507529,6.274137 -3.010925,9.302059 -1.280352,2.578698 -2.087435,5.999316 -1.415517,5.999316 0.0839,0 1.705869,-0.528317 3.604367,-1.174038 4.186919,-1.424063 5.237162,-1.459934 2.292989,-0.07832 -1.192594,0.559651 -3.25303,2.0008 -4.578747,3.202554 -2.362729,2.141799 -2.411099,2.239305 -2.44612,4.930958 -0.01965,1.510273 -0.320563,3.485595 -0.668695,4.389604 -0.621843,1.614764 -0.633596,1.580694 -0.668696,-1.938513 z" />
    <path id="adductors1" title="adductors1" class="muscle" d="m 79.881651,175.87084 c -0.78348,-6.30146 -4.170784,-21.9874 -6.872077,-31.82325 -1.998746,-7.27775 -2.354562,-9.99817 -1.689927,-12.92046 0.290592,-1.27769 0.371322,-1.22016 3.95384,2.81769 2.011455,2.2671 5.29972,6.52433 7.307254,9.46051 l 3.650062,5.33851 -1.788859,12.4699 c -0.983873,6.85845 -2.274489,14.07149 -2.868035,16.02898 l -1.079177,3.55908 z"/>
    <path id="adductors2" title="adductors2" class="muscle" d="m 95.338547,172.48315 c -0.580287,-3.68997 -1.453163,-8.77697 -1.939724,-11.30443 -0.519684,-2.69953 -0.884657,-6.63651 -0.884657,-9.54283 v -4.94742 l 5.018598,-6.57987 c 4.064716,-5.32923 8.940376,-10.60544 9.351856,-10.12014 0.0443,0.0522 -0.11201,2.35343 -0.34726,5.11384 -0.30503,3.57926 -1.29294,8.36139 -3.44402,16.67133 -1.65896,6.40883 -3.583573,14.82231 -4.276909,18.69663 -1.800696,10.06218 -2.177733,10.2804 -3.477884,2.01289 z"/>
  </g>
  <path id="human_body" title="human_body" class="muscle" d="m 250.03516,13.478516 -3.625,3.322265 -3.62305,3.320313 -0.47852,7.433594 -0.47656,7.433593 1.61524,3.867188 1.61718,3.867187 v 1.761719 1.761719 l -4.0039,3.617187 -4.00196,3.615235 h -3.37109 -3.37305 l -4.32422,1.527343 -4.32617,1.525391 -1.90234,1.720703 -1.90234,1.722656 -1.42188,2.748047 -1.41992,2.748047 -0.39844,6.753906 -0.39844,6.753907 -2.55664,7 -2.55859,7 -0.0195,1.86914 -0.0215,1.869141 -3.41601,5.630863 -3.41602,5.63086 -2.94922,7.5 -2.94922,7.5 -0.71875,3.95312 -0.71875,3.95508 -1.83593,3.54492 -1.83789,3.54688 -5.58008,5.46679 -5.57813,5.46485 v 1.28515 1.28321 h 1.29883 1.30078 l 1.19922,-1.19922 1.20117,-1.20118 -0.0332,0.95118 -0.0312,0.94922 -1.46875,1.9414 -1.4668,1.94141 v 1.30859 1.3086 h 1.5 1.5 v 1.4414 1.44141 l 1.15039,0.71094 1.15235,0.71289 1.34765,-1.84375 1.34961,-1.84375 v 1.68945 1.69141 h 1.92774 1.92969 l 1.5625,-5.25 1.56054,-5.25 0.89258,-1.36914 0.89258,-1.36915 1.19336,3.61915 1.19531,3.61914 h 1.92187 1.92383 v -1.04493 -1.04297 l -1.62695,-6.4746 -1.625,-6.47266 2.11133,-5.08008 2.10937,-5.08008 5.47461,-7.81054 5.47266,-7.8125 2.12695,-6.33985 2.12891,-6.34179 1.29687,-1.5 1.29883,-1.500004 2.57031,-5 2.56836,-5 0.0469,3.541015 0.0469,3.539063 1.58985,5.960936 1.58789,5.95899 -0.53321,8.5 -0.53515,8.5 -3.25195,9.5 -3.25196,9.5 -0.0527,24.5 -0.0527,24.5 -0.67578,1.0332 -0.67383,1.0332 -0.56836,4.82422 -0.5664,4.82422 -2.42578,6.72656 -2.42774,6.72461 -1.05468,14.91797 -1.05665,14.91602 -0.23242,11.15039 -0.23047,11.14843 1.32813,1.60157 1.32812,1.59961 h 2.6875 2.68555 l 1.66406,-1.25 1.66602,-1.25 1.52539,-4.375 1.52734,-4.37696 v -1.88281 -1.88477 l -2,-1.71289 -2,-1.71093 v -1.75391 -1.75195 l 5.51953,-10.77539 5.51954,-10.77539 0.875,-10.5 0.875,-10.5 2.48828,-5 2.48632,-5 1.20899,-5.5 1.21094,-5.5 3.57226,-11.46875 3.57227,-11.4668 0.4668,-7.2832 0.46679,-7.28125 h 0.72656 0.72461 l 0.55664,7.75 0.55469,7.75 2.97266,8.5 2.9707,8.5 1.73828,7.5 1.73828,7.5 2.95118,6.29882 2.95312,6.29883 0.32227,9.26563 0.32226,9.26758 4.46485,8.93554 4.46289,8.9336 1.24218,3.82617 1.24219,3.82617 -2.20117,2.3418 -2.19922,2.34179 0.71094,3.33203 0.71094,3.33204 1.29492,3.15039 1.29297,3.15039 3.0332,0.66601 3.03516,0.66602 2.20898,-1.18164 2.20703,-1.18164 -0.64648,-20.63477 -0.64649,-20.63476 -0.9375,-7.5 -0.93554,-7.5 -2.42579,-5.5 -2.42382,-5.5 -0.84571,-7 -0.8457,-7 0.27148,-20 0.26954,-20 -3.70118,-14 -3.70117,-14 -0.11523,-8 -0.11524,-8 1.37696,-6.500004 1.375,-6.5 0.43164,-1.480469 0.42968,-1.480469 1.92579,4.300781 1.92578,4.300782 1.99023,2.531249 1.99219,2.53125 0.66016,3.64844 0.6621,3.64844 1.85157,3.68164 1.84961,3.68359 0.99804,0.61523 0.9961,0.61719 5.67968,9.51563 5.67774,9.51562 -1.65625,7.64063 -1.6582,7.63867 0.94335,0.94336 0.94141,0.94336 2.19727,-3.72461 2.19726,-3.72266 0.8418,1.32617 0.83984,1.32618 1.54297,5.25 1.54297,5.25 h 1.47266 1.47265 v -2.61133 -2.60938 l 1.83789,2.26953 1.83789,2.26954 1.16211,-0.71876 1.16211,-0.71679 v -1.33399 -1.33398 l 1.54297,-0.5918 1.54297,-0.59375 -1.07812,-2.01367 -1.07813,-2.01562 h 1.47656 1.47657 l 0.625,-1.01368 0.62695,-1.01367 -6.56445,-7.19531 -6.56446,-7.19336 -3.97265,-12.54102 -3.97266,-12.54296 -4.0293,-6.86133 -4.03125,-6.859378 -0.01,-3.140624 -0.01,-3.138672 -2.57422,-5.5 -2.57226,-5.5 -0.32813,-7.253907 -0.32812,-7.255859 -1.83985,-3.146484 -1.83789,-3.148438 -3.77734,-1.958984 -3.77734,-1.960938 -5.72657,-0.673828 -5.72461,-0.675781 -3.28125,-2.425781 -3.2832,-2.427735 -0.53516,-2.132812 -0.53515,-2.134766 1.70312,-5.205078 1.70313,-5.207031 -0.50586,-6.285156 -0.50391,-6.28711 -1.64258,-2.505859 -1.64257,-2.50586 -2.53321,-1.154297 -2.53125,-1.154296 h -3.46875 z m -163.296879,1.011718 -3.644531,0.980469 -3.644531,0.982422 -1.105469,4.761719 -1.105469,4.763672 -0.002,5.5 v 5.5 l 1.527344,2.388672 1.527344,2.388671 -0.484375,5.052735 -0.486329,5.050781 -3.083984,2.755859 -3.083984,2.75586 -3.544922,0.554687 -3.542969,0.552735 -3.470703,0.541015 -3.470703,0.539063 -2.908203,2.445312 -2.90625,2.447266 L 52.15425,69.035156 51,73.619141 l 0.576172,3.179687 0.576172,3.179688 -2.001953,3.878906 -2.001953,3.880859 -0.658204,4.619141 -0.65625,4.621094 -2.765625,3 -2.763671,3.000004 -1.015626,2 -1.015624,2 -3.720704,10 -3.720703,10 -3.097656,5.21875 -3.099609,5.21679 -2.535157,1.07813 -2.535156,1.07812 -2.75,2.40625 -2.75,2.40625 v 1.04883 1.04688 h 2.582031 2.583985 l -0.386719,0.75 -0.384766,0.75 -1.759765,3.86718 -1.759766,3.86914 2.019531,1.88086 2.021485,1.88282 h 1.919922 1.917968 l 1.236329,-1.48829 1.236328,-1.48828 0.929687,0.57422 0.931641,0.57422 1.33789,-1.11133 1.339844,-1.10937 2.175781,-7.22657 2.177735,-7.2246 2.998047,-6.04688 2.998047,-6.04883 3.24414,-3.45117 3.246094,-3.45312 3.796875,-3.36524 3.798828,-3.36719 1.876953,-4.13281 1.876953,-4.13476 0.02734,-1.5 0.02539,-1.5 2.496093,-4.919926 2.496094,-4.917969 0.03906,-1.582031 0.04102,-1.580078 1.564453,2.890625 1.564454,2.888671 -0.71875,14.111328 -0.720704,14.10938 -2.84375,8.52343 -2.84375,8.52344 -0.984375,10.47656 -0.986328,10.47657 0.890625,7.04492 0.890625,7.04492 1.052735,2.77148 1.054687,2.76954 v 4.97656 4.97656 l -1.505859,7.70898 -1.503906,7.70704 -1.066407,6 -1.066406,6 -0.384766,1.9414 -0.384765,1.93946 1.953125,10.06054 1.953125,10.0586 0.002,3.11718 0.0039,3.11719 -2.181641,5.38281 -2.18164,5.38282 -1.888672,2.75195 -1.886719,2.75195 0.31836,2.24805 0.320312,2.24805 3.5,1.19336 3.5,1.19335 2.058594,0.0566 2.058594,0.0566 1.660156,-1.25 1.660156,-1.25 1.982422,-6.42969 1.982422,-6.42774 -1.044922,-4.86914 -1.044922,-4.86914 0.5,-4.70312 0.498047,-4.70117 3.185547,-8.92188 3.183594,-8.92187 0.492187,-9.57813 0.494141,-9.57812 1.416015,-3.76954 1.417969,-3.76953 0.01172,-2.73047 0.01367,-2.73046 1.960937,-6.25391 1.960938,-6.25586 1.550781,-9.64063 1.550781,-9.63867 0.08398,-5.85547 0.08203,-5.85546 h 1.912109 1.910156 l -0.648437,2.58789 -0.650391,2.58789 1.740235,11.16211 1.738281,11.16211 1.892578,6.65625 1.890625,6.65429 v 1.88477 1.88476 l 1.552735,5.96094 1.554691,5.95899 1.02343,11 1.02344,11 1.98047,5.5 1.98047,5.5 1.59765,5 1.59766,5 -1.0918,6.5 -1.09179,6.5 1.36132,5.17382 1.35938,5.17188 1.11133,2.07812 1.11133,2.07618 3.71484,-0.11719 3.71484,-0.11914 2.98828,-0.63867 2.98829,-0.64063 0.33398,-1.73633 0.33398,-1.73633 -2.04492,-2.87304 -2.04687,-2.87305 -2.53711,-7.03711 -2.53906,-7.03711 1.43554,-5.51562 1.4375,-5.51368 0.64063,-7.83007 0.64062,-7.83203 -2.56445,-13.38282 -2.56641,-13.38476 0.0352,-5.61524 0.0371,-5.61718 1.44726,-6 1.44922,-6 0.008,-8.5 0.008,-8.5 -1.03125,-6.5 -1.03125,-6.5 -2.35742,-8 -2.35547,-8 -0.79102,-10.5 -0.79101,-10.5 0.008,-3 0.008,-3.000004 0.69727,-2.75 0.69726,-2.75 h 0.98047 0.98242 v 1.236328 1.236328 l 2.39258,5.013672 2.39258,5.013676 1.20508,4.44336 1.20508,4.4414 7.82812,7.5586 7.82813,7.55664 2.53515,5.78906 2.53711,5.78711 0.67383,3.71289 0.67578,3.71094 2.42188,4.83398 2.42382,4.83398 1.36719,-0.52343 1.36719,-0.52539 1.19531,1.4414 1.19531,1.43946 h 1.91993 1.91992 l 2.01953,-1.88282 2.02148,-1.88086 -1.75976,-3.86914 -1.75977,-3.86718 -0.38672,-0.75 -0.38476,-0.75 h 2.58203 2.58398 v -1.04688 -1.04883 l -2.75,-2.40625 -2.75,-2.40625 -2.63086,-1.11719 -2.6289,-1.11718 -2.48633,-4.67774 -2.48633,-4.67968 L 142,116.17773 137.66602,104.375 l -3.26758,-3.81836 -3.26953,-3.820312 -0.67188,-4.378906 -0.67383,-4.378906 -1.85937,-3.708985 -1.85938,-3.710937 -0.004,-6.289063 -0.004,-6.291015 -2.01758,-3.310547 -2.01953,-3.308594 -3.44531,-1.441406 -3.44531,-1.439453 h -3.2168 -3.2168 l -4.16211,-2.013672 -4.16211,-2.015625 -1.154293,-2.53125 -1.152344,-2.533203 v -3.830078 -3.830079 l 1.4375,-1.195312 1.439457,-1.193359 0.0176,-7.736329 0.0156,-7.736328 -1.908204,-3.140625 -1.908203,-3.138672 -5.210937,-1.546875 z m 165.226559,0.988282 h 2.09961 2.09961 l 2.75391,1.425781 2.75586,1.423828 1.19531,2.623047 1.19531,2.621094 v 4.49414 4.492188 l -1.95703,3.835937 -1.95898,3.837891 -1.62305,0.623047 -1.625,0.623047 -3.16797,-0.03125 -3.16797,-0.03125 -1.54687,-1.21875 -1.54492,-1.21875 -1.70508,-2.472657 -1.70313,-2.472656 v -5.230469 -5.230468 l 1.19336,-2.621094 1.19531,-2.623047 2.75586,-1.423828 z m -163.400387,1.779296 2.193359,0.111329 2.195313,0.109375 2.804687,2.625 2.806641,2.625 -1.599609,-1.123047 -1.601563,-1.121094 -4.728515,0.882813 -4.728516,0.882812 -1.771484,-0.462891 -1.773438,-0.46289 -1.648437,1.648437 -1.648438,1.650391 v -1.017578 -1.015625 l 2.25,-2.5 2.25,-2.501953 2.5,-0.164063 z m 7.351563,5.181641 0.486328,1.769531 0.486328,1.771485 0.679687,3.996093 0.679688,3.998047 1.115234,0.691407 1.117189,0.689453 -2.390626,4.8125 -2.388672,4.8125 -1.56836,1.216797 -1.568359,1.21875 -3.5,0.002 h -3.5 l -1.75,-1.017578 -1.75,-1.019532 v -1.5 -1.5 l -1.595703,-3.08789 -1.597656,-3.085938 1.224609,-2.287109 1.224609,-2.28711 -0.607421,-2.414062 -0.605469,-2.416016 1.228516,-1.544922 1.228515,-1.544921 6.675781,-0.636719 z m 2.148437,0.707031 0.666016,0.666016 0.666015,0.666016 -0.666015,0.667968 -0.666016,0.666016 V 24.478516 Z M 261.18164,40.478516 h 0.44141 0.4414 v 1 1 h -1.06054 -1.0586 l 0.61914,-1 z m -2.61719,2.351562 3.25586,4.824219 3.25781,4.824219 -0.25781,-0.103516 -0.25586,-0.103516 -4.75,-1.455078 -4.75,-1.453125 v -2.826172 -2.824218 l 1.75,-0.441407 z m -5.5,0.648438 v 2.960937 2.962891 l -4.0625,1.09375 -4.0625,1.09375 -1.68164,0.644531 -1.68359,0.646484 3.99609,-4.667968 3.99414,-4.667969 1.75,-0.0332 z m -170.999997,4.1875 3.5,1.074218 3.5,1.074219 3.382813,-1.039062 3.384765,-1.03711 -0.99414,3.621094 -0.994141,3.619141 -1.390625,2.701172 -1.388672,2.701171 v 1.503907 1.505859 l 4.125,-1.455078 4.125,-1.457031 1.124997,0.03906 1.125,0.03906 -3.494138,1.515625 -3.492187,1.515625 -2.257813,2.11914 -2.255859,2.121094 -0.09961,2.576172 -0.09961,2.574219 -0.800781,2.5 -0.800781,2.5 -0.09961,-4.167969 -0.09961,-4.167969 -0.626953,-1.630859 -0.625,-1.63086 -3.625,-2.560547 -3.623047,-2.5625 2,0.498047 2,0.496094 1.75,0.720703 1.75,0.720703 v -0.988281 -0.988281 l -2.5,-6.640625 -2.5,-6.642578 v -0.382813 z m 171.999997,3.042968 7.25,2.0625 7.25,2.064454 0.29688,0.201171 0.29492,0.201172 -2.04492,3.927735 -2.04688,3.925781 -0.96875,7.630859 -0.96679,7.632813 -4.28321,8.042969 -4.28125,8.041015 -0.50781,0.01953 -0.50586,0.01953 -4.66601,-9.25 -4.66602,-9.25 -0.55078,-6.873047 -0.55274,-6.873047 -2.0664,-3.501953 -2.06641,-3.503907 0.29102,-0.195312 0.29101,-0.195312 7.25,-2.064454 z m -157.499997,1.269532 3.082031,3.169922 3.083986,3.169921 -3.404298,0.638672 -3.404297,0.638672 -1.429687,0.548828 -1.427735,0.548828 v -0.498047 -0.498046 l 1.75,-3.859375 z m -15.257812,0.410156 0.158203,0.294922 0.158203,0.294922 1.705078,3.75 1.703125,3.75 -0.734375,-0.119141 -0.732422,-0.121094 -4.070312,-0.982422 -4.06836,-0.984375 2.941407,-2.941406 z m 155.957029,2.816406 -0.35547,1.886719 -0.35742,1.886719 -4.74414,3 -4.74414,3 -0.60156,2.638672 -0.60156,2.638671 -4.14844,1.791016 -4.14649,1.789063 -0.90429,0.457031 -0.9043,0.455078 0.63672,-4.652344 0.63867,-4.650391 1.47266,-2.849609 1.47265,-2.847656 3.79297,-1.802735 3.79492,-1.802734 4.84961,-0.46875 z m 33.80078,0.273438 h 4.1836 4.18359 l 4.4375,2.148437 4.4375,2.148438 1.93945,4.382812 1.93946,4.384766 -0.31055,2.845703 -0.31055,2.845703 -3.48437,-1.876953 -3.48438,-1.878906 h -1.26562 -1.26563 v -2.546875 -2.544922 l -3.1875,-1.705078 -3.1875,-1.703125 -2.3125,-2.205078 -2.3125,-2.203126 v -1.046874 z m -32.06836,2.59375 1.44727,3.46289 1.44726,3.462891 0.28126,5.314453 0.28124,5.3125 -4.30273,1.927734 -4.30469,1.925782 h -1.23632 -1.23633 l -1.56641,-1.75 -1.56641,-1.75 -0.23828,-3 -0.24023,-3 0.15039,-1.72461 0.15234,-1.722656 2.9668,-1.535156 2.96875,-1.535156 2.49805,-2.695313 z m 30.1875,0.314453 3.18946,2.582031 3.1914,2.580078 2.80469,2.214844 2.80274,2.214844 -0.69141,4.318359 -0.69336,4.316406 -1.43359,1.433594 -1.43164,1.431641 -1.67969,-0.08398 -1.67774,-0.08398 -4.25,-1.953125 -4.25,-1.955078 V 74.625 73.845703 l 1.09571,-5.927734 1.0957,-5.929688 0.96484,-1.800781 z m -191.119137,1.759765 0.666016,0.666016 0.666015,0.666016 H 78.064453 76.730469 L 77.396484,60.8125 Z m -13.478515,0.332032 h 3.445312 5.033203 v 0.759765 0.759766 l -1.824219,1.138672 -1.824218,1.140625 -3.851563,5.947265 -3.851562,5.949219 -3.074219,1.326172 -3.074219,1.324219 -0.5625,0.347656 -0.5625,0.349609 -0.6875,-0.6875 -0.6875,-0.6875 v -2.529296 z m 50.978512,0.0078 3.31055,2.019531 3.30859,2.017579 1.44141,3.445312 1.43945,3.445312 v 1.882813 L 113.91602,60.496094 Z m -3.4414,0.01953 12.9414,14.50586 v 1.304687 l -0.60742,1.582032 -0.60742,1.580078 -0.64258,-0.05664 -0.64258,-0.05664 -3.36718,-1.880859 -3.36719,-1.878906 -3.52539,-5.3125 -3.52344,-5.314453 -2.60937,-2.212891 -2.60743,-2.214844 6,-0.03125 z m -49.707034,0.216797 v 0.134766 l -9.351563,13.02539 v -3.46875 l 1.462891,-3.503906 1.464844,-3.501953 3.503906,-1.464844 z m 11.542968,2.50586 h 2.544922 2.542969 l 3.369141,2.570312 3.367187,2.56836 0.628906,3.80664 0.628907,3.804688 0.01172,2.714843 0.01172,2.714844 -1.935547,1.035156 -1.933594,1.035157 -5.316406,-0.03906 -5.314453,-0.03906 -3,-1.408203 -3,-1.410157 -1.882812,-1.507812 -1.88086,-1.509766 3.111328,-4.849609 3.113282,-4.851563 2.466797,-2.316406 z m 24.173828,0.25 h 2.531248 2.53125 l 1.70899,0.916015 1.70898,0.914063 3.83789,5.572265 3.83789,5.570313 -0.56445,1.46875 -0.5625,1.46875 -4.00977,2.044922 -4.00781,2.044922 -5.291014,-0.0293 -5.289063,-0.03125 -1.75,-1.019531 -1.75,-1.019532 v -5.845703 -5.847656 l 3.535156,-3.103516 z m 125.832028,9 h 0.89063 0.88867 l 1.22461,5.25 1.22266,5.25 -1.46289,4.740234 -1.4629,4.740234 -2.64257,4.509766 -2.64258,4.509773 h -2.06641 -2.06445 l 0.72851,-1.750007 0.72852,-1.75 0.50586,-4.75 0.50586,-4.75 h -2.00977 -2.01171 l -0.60352,2.25 -0.60156,2.25 -0.0137,3.191406 -0.0137,3.191406 -1,0.617188 -1,0.619147 v -3.902351 -3.902343 l 1.88867,-5.494141 1.89063,-5.49414 1.62695,-3.146485 1.62696,-3.144531 2.93359,-1.517578 z m 58.36328,0 h 0.91797 0.91797 l 2.94336,1.523437 2.94531,1.523438 2.5293,4.990234 2.53125,4.992187 1.31055,5.123047 1.31055,5.121094 -0.44922,2.351563 -0.44922,2.351567 -0.88672,-0.54688 -0.88477,-0.546875 -0.0137,-3.191406 -0.0137,-3.191406 -0.60352,-2.25 -0.60351,-2.25 h -2.02149 -2.02343 l 0.56836,4.75 0.56836,4.75 0.67773,1.75 0.67773,1.750007 h -1.55468 -1.55664 l -2.64649,-3.468757 -2.64648,-3.46875 -1.80664,-5.802735 -1.80469,-5.802734 1.0332,-5.228516 z m -16.57421,4.976562 4.68164,2.070313 4.68164,2.070312 1.97461,-0.625 1.97265,-0.626953 -0.0352,0.818359 -0.0352,0.816407 -1.29297,9.140625 -1.29297,9.142582 -3.69531,5.14258 -3.69336,5.14258 -0.75195,3.61132 -0.75,3.61133 -1.2207,-2.67773 -1.22071,-2.67774 -0.58594,-4.21679 -0.58789,-4.21875 -0.96289,-2.5586 -0.96093,-2.560548 -3.00196,-1.773437 -3.0039,-1.773438 4.66406,-8.667969 4.66211,-8.666015 0.22851,-0.261719 z m -23.32618,0.05469 0.16602,0.234375 0.16797,0.234375 4.58789,8.46289 4.58789,8.460938 -3.9375,3.634765 -3.93555,3.634772 v 4.18554 4.18555 l -1.44922,3.46875 -1.44921,3.4668 h -0.41993 -0.41992 l -0.57422,-3.53907 -0.57422,-3.53906 -3.6914,-5.02734 -3.69141,-5.02735 -1.18554,-9.873045 -1.18555,-9.871094 2.57031,0.488282 2.57031,0.488281 3.93164,-2.033203 z m -124.7832,0.74414 3.95899,2.681641 3.96093,2.683594 1.41407,2.679687 1.41406,2.679688 0.45898,7.115234 0.45703,7.115231 -0.87109,0.4961 -0.87305,0.49414 -3.5,-1.45117 -3.5,-1.45313 -1.71484,-1.531249 -1.71484,-1.53125 -1.58985,-5.46875 -1.58984,-5.470703 0.30469,-3.554688 0.30468,-3.55664 1.53907,-0.962891 z m -57.601561,0.142578 2.074219,1.111328 2.074218,1.109376 -0.671875,5.68164 -0.671875,5.679688 -1.841797,4.263672 -1.841797,4.265623 -4.632812,1.98438 -4.632812,1.98633 h -0.417969 -0.416016 v -6.849615 -6.851562 l 1.105469,-3.173828 1.107422,-3.175782 4.382812,-3.015625 z m 4.787109,3.837891 1.367188,0.556641 1.367187,0.558593 3.5,1.146485 3.5,1.146484 -0.337891,10.900391 -0.33789,10.900392 2.142578,12.08008 2.142578,12.08008 0.552734,1.4375 0.550782,1.4375 -0.357422,-0.13672 -0.355469,-0.13868 -5.929687,-5.72265 -5.927735,-5.72461 1.359375,-11.80664 1.361328,-11.806643 -1.796875,-4.582031 -1.796875,-4.582031 -0.501953,-3.871094 z m 47.150392,0.0625 0.6875,2.742187 0.6875,2.742188 -1.89453,3.515625 -1.89649,3.517578 0.0332,7.582028 0.0332,7.58204 0.3457,6.74609 0.34571,6.74805 -6.79493,6.72656 -6.792965,6.72656 0.769531,-2.97461 0.769532,-2.97265 1.513671,-7.5 1.511721,-7.5 0.46875,-15.03125 0.4668,-15.033209 3.16601,-1.070312 3.16406,-1.068359 1.70703,-0.740235 z m -22.001954,1.511719 5.009765,1.02539 5.009766,1.027344 0.664063,4.419922 0.66211,4.417969 -1.380861,0.875 -1.378906,0.875 -2,-0.121094 -2,-0.121094 -2.164062,-0.421875 -2.164063,-0.421875 -0.673828,-4.896484 -0.673828,-4.896485 0.544922,-0.880859 z m -1.63086,0.363281 -0.498047,5.175781 -0.496093,5.175782 -0.394532,0.363281 -0.394531,0.363281 -4,0.558594 -4,0.55664 -1.25,-0.52539 -1.25,-0.527344 v -4.916016 -4.917968 l 2.25,-0.0098 2.25,-0.01172 3.890625,-0.642578 z m 126.716794,5.90625 1.0293,1.03125 1.03125,1.03125 -0.9668,2.417969 -0.96679,2.419922 -0.0645,-3.449219 z m 75.6836,0.08789 1.08789,0.671875 1.08789,0.671875 0.6875,5.498046 0.68555,5.49805 1.03515,0.63867 1.03516,0.64063 1.29297,-1.76954 1.29296,-1.76757 1.98633,3.26562 1.98633,3.26563 2.95703,7.09961 2.95899,7.09961 2.41015,7.7207 2.40821,7.7207 -1.37891,0.5293 -1.38086,0.5293 h -1.73242 -1.73438 l -1.77343,-3.75 -1.77539,-3.75 -5.44141,-8.19922 -5.43945,-8.19922 -1.47071,-3.51953 -1.46875,-3.51758 v -1.53125 -1.5332 h 1.62891 1.63086 l -0.56641,-4.250006 -0.5664,-4.25 -0.72071,-2.40625 z m -36.06641,6.46875 3.10938,1.96875 3.10937,1.968756 1.08203,3.10156 1.08203,3.10351 0.006,3.10157 0.006,3.09961 1.49414,2.86523 1.49414,2.86328 v 0.77735 0.77734 l -2.52539,0.63476 -2.52539,0.63282 -3.72461,3.36132 -3.72461,3.36329 -1.84179,-2.44727 -1.8418,-2.44726 -3.6582,-1.66016 -3.65821,-1.66016 -0.32422,-0.1875 -0.32421,-0.1875 1.57421,-3.04297 1.57422,-3.04297 v -4.00195 -4.0039 l 1.19727,-2.62696 1.19726,-2.62695 3.61133,-1.8418 z m -39.79883,0.34375 0.0918,3.250006 0.0898,3.25 h 1.5 1.5 v 1.95312 1.95313 l -1.22461,2.79687 -1.22656,2.79688 -6.1582,9.10937 -6.16016,9.11133 -1.3164,3.63867 -1.31641,3.64063 -1.54883,-0.11524 -1.54883,-0.11719 -1.82422,-0.4707 -1.82226,-0.4707 0.71289,-1.66407 0.71289,-1.6621 2.79297,-9.14844 2.79101,-9.15039 2.71094,-5.34961 2.70899,-5.35156 1.52539,-2.32813 1.52343,-2.32812 0.88282,1.57812 0.88476,1.57813 h 0.91992 0.92188 l 0.93945,-3.25 z M 88.064453,97.533203 v 4.365237 4.36718 l -1.582031,0.60547 -1.582031,0.60743 h -3.751953 -3.751954 l -0.666015,-0.66602 -0.666016,-0.66602 0.002,-4.08398 0.002,-4.083984 5.998047,-0.222657 z m 0.998047,0.09766 5.998047,0.173829 5.998043,0.173828 0.002,4.14257 0.004,4.14453 -1.582028,0.60547 -1.582031,0.60743 H 94.148438 90.396484 L 89.730469,106.8125 89.0625,106.14648 v -4.25781 z m -42.007812,2.546867 0.628906,3.15039 0.630859,3.1504 h 0.751953 0.753906 l 3.589844,-1.5 3.589844,-1.5 h 0.462891 0.460937 l -0.820312,2.86132 -0.820313,2.85938 -1.279297,2.39062 -1.277344,2.38868 -7.832031,7.66601 -7.830078,7.66406 v 1.52539 1.52735 l -0.896484,0.55273 -0.896485,0.55469 -2.009765,-1.74609 -2.007813,-1.74414 4.230469,-11 4.232422,-11 1.082031,-2.01172 1.080078,-2.00977 2.087891,-1.89062 z m 83.009762,0.30079 h 0.94922 0.94922 l 2.43945,3.25 2.44141,3.25 4.10937,11.24609 4.11133,11.24414 v 0.76563 0.76367 l -1.87695,1.17187 -1.87695,1.17188 -3.13867,-4.84766 -3.14063,-4.8457 -5.89844,-5.10938 -5.89843,-5.10937 -1.58204,-4.64453 -1.58203,-4.64454 0.34375,-0.34374 0.3418,-0.34376 3.69922,1.54493 3.69726,1.54492 0.95508,-0.5918 0.95703,-0.58984 v -2.44141 z m 144.13477,6 0.18359,0.01 0.18164,0.01 0.22071,6.99023 0.2207,6.99024 -1.2207,-0.11524 -1.22071,-0.11719 -1.84375,-0.47461 -1.8457,-0.47656 0.67969,-3.625 0.68164,-3.62304 1.98242,-2.78516 z m -40.0918,0.5 1.89453,2.46484 1.89258,2.46289 0.36133,3.78711 0.36133,3.78516 h -0.69531 -0.69532 l -1.58008,0.60742 -1.58203,0.60742 0.0215,-6.85742 z m -146.042967,1.875 v 2.73046 2.73047 l -0.607422,1.58203 -0.607422,1.58204 -1.142578,-0.10352 -1.142578,-0.10352 -3.654297,-0.97265 -3.652344,-0.97266 -0.583984,-2.17383 -0.582031,-2.17382 -0.0078,-1 -0.0078,-1 5.99414,-0.0625 z m 13.021487,0.12304 -0.50977,1.33399 -0.51172,1.33203 v 1.38281 1.38281 l -1.749997,0.91797 -1.75,0.91602 -3.128906,0.67187 -3.128906,0.66992 -0.685547,-3.65429 -0.685547,-3.6543 0.490234,-0.49219 0.490235,-0.49023 5.585937,-0.1582 z m -23.33594,8.16797 1.738281,0.66797 1.738281,0.66602 h 2.791016 2.791016 l 0.634765,3.9746 0.636719,3.97461 -0.65625,8.52539 -0.654297,8.5254 h -0.730469 -0.730468 l -1.03125,-1.25 -1.03125,-1.25 -2.072266,-6.16211 -2.072266,-6.16016 -0.675781,-5.75586 z m 20.615234,0.30274 0.359375,0.35742 0.357422,0.35937 -1.550781,8.16992 -1.548828,8.16993 -1.923828,4.48828 -1.923828,4.48633 h -0.90625 -0.908204 l -0.457031,-7.90821 -0.458984,-7.9082 0.580078,-4.29883 0.580078,-4.29687 3.900391,-0.81055 z m 140.931646,4.03125 -3.47657,3.84765 -3.47656,3.84961 -0.67969,3.61719 -0.67773,3.61523 -1.13086,0.69922 -1.13086,0.69922 0.54101,-1.41406 0.54102,-1.41406 1.85156,-6 1.85157,-6 1.02734,-0.73438 1.02734,-0.73437 1.86524,-0.0156 z m 29.61132,0 1.82813,0.0156 1.82812,0.0156 1.26953,0.80468 1.26954,0.80664 1.96289,6.86329 1.96093,6.86328 -0.45312,0.45507 -0.45508,0.45313 -1.02734,-2.70313 -1.02735,-2.70312 v -1.25586 -1.25391 l -3.57812,-4.18164 z m -3.1875,0.0644 3.6875,3.77734 3.6875,3.77735 2.10938,5.43945 2.10742,5.44141 0.48633,3.27343 0.48828,3.27149 -1.20313,2.9082 -1.20507,2.90625 -3.3086,1.57031 -3.30859,1.57032 h -5.63086 -5.62891 l -0.55078,-1.75 -0.55078,-1.75 -0.91797,-2.29688 -0.91797,-2.29687 v -8.00196 -8.0039 l 1.40235,-2.71094 1.40039,-2.71094 3.92773,-2.20703 z m -24.25,0.93555 h 1.39258 1.39258 l 2.76758,1.63671 2.76953,1.63477 1.63476,2.76953 1.63672,2.76758 -0.0762,8.3457 -0.0762,8.34571 -1.25977,3.5 -1.25976,3.5 -5.91406,0.25 -5.91407,0.25 -3.11718,-1.56055 -3.11719,-1.56055 -1.13281,-2.48633 -1.13282,-2.48632 v -2.59961 -2.60157 l 2.15625,-6.10156 2.15821,-6.10351 3.54492,-3.75 z m -174.238278,3.98632 1.02539,0.63477 1.027344,0.63477 -0.417968,5.77929 -0.417969,5.77735 -2.44336,3.57812 -2.441406,3.57813 -1.126953,0.4375 -1.125,0.43554 0.908203,-4.16992 0.908203,-4.17187 2.050782,-6.25586 z m 43.470698,0.11914 2.10157,6.69727 2.09961,6.69727 0.6582,3.25 0.66016,3.25 h -0.47657 -0.47461 l -3.10351,-3.53516 -3.10352,-3.5332 v -5.90625 -5.90625 l 0.82032,-0.50782 z m -39.556636,2.39454 3.810547,4.21289 3.810547,4.21093 3.855469,5.59766 3.855469,5.59961 -1.798828,12.53906 -1.800782,12.54102 -1.232422,4.14843 -1.232422,4.1504 -0.77539,-6 -0.777344,-6 -1.960937,-9 -1.960938,-9 -2.050781,-7.5 -2.050781,-7.5 -0.04492,-1 -0.04492,-1 0.199219,-3 z m 36.115236,0 -0.43945,5.5 -0.4375,5.5 -3.09571,12 -3.0957,12 -1.226563,7 -1.226563,7 -0.730468,0.84375 -0.730469,0.84179 -1.197266,-7.34179 -1.195312,-7.34375 -0.91211,-4.79883 -0.910156,-4.79883 v -4.23438 -4.23632 l 4.888672,-6.46485 4.890625,-6.46679 2.70898,-2.5 z m -76.876954,3.5 h 1.216796 1.216797 l 1.087891,1.31054 1.087891,1.31055 -0.957032,3.43945 -0.957031,3.43946 -1.054687,4.28125 -1.054688,4.27929 -0.998047,-0.61523 -0.996094,-0.61719 -1.457031,1.20898 -1.455078,1.20899 v -1.05664 -1.05469 l -1.857422,-0.58984 -1.857422,-0.58789 0.503907,-2.63282 0.501953,-2.63281 -2.146485,0.56055 -2.148437,0.5625 0.585937,-0.94727 0.585938,-0.94726 3.953125,-2.4961 3.955078,-2.49609 1.121094,-2.46484 z m 116.357424,0 1.12304,2.46289 1.12305,2.46484 3.95313,2.49609 3.95507,2.4961 0.63477,1.02929 0.63672,1.02735 -1.55274,-0.59375 -1.55078,-0.59571 v 2.60547 2.60743 h -0.92968 -0.92774 l -1.50781,1.50781 -1.50781,1.50781 -0.66407,-1.07617 -0.66601,-1.07617 -1.3711,0.52734 -1.37109,0.52539 -1.03711,-4.20703 -1.03515,-4.20898 -0.94922,-3.41993 -0.95118,-3.41992 1.70899,-1.29883 1.70898,-1.29687 0.58985,-0.0332 z m 168.23242,5.13476 3.04492,3.46875 3.04492,3.4668 v 0.52344 0.52539 l -1,-0.61914 -1,-0.61719 v 1.1914 1.18946 l 2.08008,3.36914 2.08203,3.36719 -0.33203,-0.002 -0.33008,-0.004 -2.79883,-3.2461 -2.79882,-3.24804 0.56445,3 0.5625,3 -1.375,-1.75 -1.375,-1.75 h -0.64063 -0.63867 l -0.0645,1.75 -0.0645,1.75 -1.61719,-3.25 -1.61719,-3.25 h -1.26953 -1.26758 l -1.04883,1.75 -1.04687,1.75 0.625,-4.5 0.62695,-4.5 0.6211,-0.61329 0.62304,-0.61328 3.20508,-1.06836 z m -123.5332,1.86524 h 3.24023 3.24024 l 1.57031,1.57226 1.57226,1.57031 0.0137,1.67969 0.0137,1.67774 0.64062,2.5 0.64258,2.5 -2.03906,-2.46485 -2.03906,-2.46484 -2.11329,3.46484 -2.11132,3.46485 -0.004,-1.75 -0.004,-1.75 h -0.76953 -0.76758 l -1.70507,2.75 -1.70508,2.75 -0.0254,-0.70313 -0.0274,-0.70312 1.16211,-2.55079 1.16211,-2.55078 -0.67187,-0.67382 -0.67383,-0.67188 -1.54492,1.92773 -1.54493,1.92579 1.19922,-2.45118 1.19922,-2.45312 -1.11914,-0.37305 -1.11719,-0.37109 2.16211,-2.92578 z m -121.537113,0.9375 1.541015,5.30078 1.541016,5.30078 1.529297,6.59765 1.529297,6.59766 -1.363281,9.17188 -1.363282,9.17187 -0.482421,0.48438 -0.484376,0.48242 -3.191406,-7.13672 -3.191406,-7.13867 -0.953125,-5.02149 -0.951172,-5.02148 0.01758,-5.11328 0.01758,-5.11328 2.902344,-4.28125 z m 37.406253,1.0625 H 108 h 0.6875 l 2.4375,3.25 2.43945,3.25 -0.12304,8.10156 -0.125,8.10156 -1.23633,3.89844 -1.23633,3.89844 -2.52734,5.75 -2.52539,5.75 h -0.67579 -0.67382 l -1.25586,-10.26563 -1.25391,-10.26562 2.68945,-10.73438 z m 120.62695,2.5 0.0644,2.61523 0.0625,2.61523 2.16797,2.75586 2.16797,2.75586 3.33203,1.39258 3.33203,1.39258 -0.0117,1.23633 -0.0137,1.23633 -1.98633,6.33984 -1.98828,6.33789 -0.006,3.16211 -0.006,3.16016 -0.99609,3.58593 -0.99609,3.58399 -3.24805,3.7539 -3.24805,3.75196 -0.28906,-22.39453 -0.28906,-22.39649 0.97656,-2.4414 z m 52.84961,0 0.78125,3.91796 0.78125,3.91797 -0.69141,18.13867 -0.6914,18.13868 1.02343,2.69336 1.02344,2.69336 h -0.88476 -0.88672 l -2.6875,-3.19336 -2.6875,-3.19336 -0.80469,-2.11524 -0.80469,-2.11523 -1.18359,-7.81055 -1.1836,-7.81055 -1.41406,-4.00585 -1.41211,-4.00782 v -1.29297 -1.29492 l 2.87305,-0.63281 2.875,-0.63086 2.04492,-2.19727 2.04297,-2.19921 0.94336,-3.5 z m -165.72266,5.0996 1.04688,1.04688 1.04687,1.04688 0.20313,8.90429 0.20312,8.90235 -2.98242,7.75 -2.98047,7.75 h -0.80078 -0.79883 l -0.50976,-1.32422 -0.50781,-1.32422 3.03906,-9.07422 3.04101,-9.07227 v -7.30273 z m -53.728512,0.4004 h 0.93164 0.931641 l -0.625,1.96875 -0.625,1.96875 1.046875,7.52539 1.044922,7.52343 2.519531,6.19727 2.517578,6.19727 -0.574219,1.80859 -0.574218,1.81055 h -0.837891 -0.837891 l -3.095703,-8.55274 -3.09375,-8.55078 v -4.30859 -4.3086 l 0.634766,-4.63867 z m 243.728512,1 h 0.5 0.5 v 0.5 0.5 h -0.5 -0.5 v -0.5 z m -154,2 h 0.5 0.5 v 0.5 0.5 h -0.5 -0.5 v -0.5 z m 163.15821,0.5 0.52343,1.3125 0.52539,1.3125 -0.60351,0.60546 -0.60352,0.60352 0.0781,-1.91602 z m -121.15821,0.16796 0.66602,0.66602 0.66601,0.66602 -0.66601,0.66796 -0.66602,0.66602 v -1.33398 z m 125,0.33204 h 0.5 0.5 v 0.5 0.5 h -0.5 -0.5 v -0.5 z m -130,2 h 0.5 0.5 v 0.5 0.5 h -0.5 -0.5 v -0.5 z m 2,1 h 0.5 0.5 v 0.5 0.5 h -0.5 -0.5 v -0.5 z m 61.23047,0.46679 -0.52539,5.01758 -0.52734,5.01563 -2.51953,6.5 -2.51954,6.5 -0.0781,-1 -0.0762,-1 -0.89844,-6 -0.90039,-6 -0.58789,-4.14844 -0.58984,-4.15039 4.61132,-0.36719 z m 5.76953,0.0195 4.5,0.35743 4.5,0.35742 -0.0176,1.15039 -0.0195,1.14844 -1.42382,9.35937 -1.42383,9.35938 -0.36133,0.36132 -0.36133,0.36133 -2.71484,-8.2207 -2.71289,-8.2207 0.0176,-3.00586 z m -65,0.51368 h 0.5 0.5 v 0.5 0.5 h -0.5 -0.5 v -0.5 z m 48.80664,2.61132 0.63868,5.94532 0.63671,5.94336 1.05079,6.14453 1.05273,6.14257 -1.21094,5.83008 -1.20898,5.82813 -2.13672,4.875 -2.13672,4.875 -2.24609,-4.625 -2.2461,-4.62305 v -3.35156 -3.35156 l 1.38867,-3.3711 1.39063,-3.37304 0.71875,-6.34961 0.7207,-6.34961 1.79492,-5.09571 z m 26.6211,2.41797 0.61719,0.73633 0.61718,0.73438 1.10156,4 1.09961,4 0.64454,5 0.64453,5 1.42382,3.77148 1.42383,3.76953 v 3.65235 3.65234 l -1.75,3.80078 -1.75,3.80273 -0.56445,0.0254 -0.56641,0.0254 -1.64453,-3.44727 -1.64453,-3.44922 -1.5918,-6.14648 -1.59375,-6.14649 1.76758,-11.39062 z m -190.876956,8.47071 0.664063,1.05859 0.666015,1.06055 0.697266,7.68945 0.697266,7.69141 h -0.9375 -0.9375 l -1.201172,-1.19922 -1.199219,-1.20118 0.05664,-3.54882 0.05859,-3.55078 0.716796,-4 z m 23.703126,0.54101 0.79492,0.49024 0.79297,0.49023 0.69727,6.49609 0.69531,6.4961 -1.24024,1.49219 -1.24023,1.49414 h -0.876954 -0.876953 l 0.0098,-4.75 0.01172,-4.75 0.617187,-3.73047 z m 13.74609,11.51367 0.0137,4.47266 0.0137,4.47266 0.55859,2.5 0.55859,2.5 -2.56836,-3 -2.5664,-3 -0.006,2.11523 -0.004,2.11523 -2.13867,2.71875 -2.14062,2.72071 -0.84571,-1.33594 -0.8457,-1.33398 -0.16406,-3 -0.16602,-3 -0.65625,4.5 -0.65625,4.5 -1.18555,-2.79297 -1.18554,-2.79493 -0.576174,-2.29687 -0.576172,-2.29492 2.818356,-1.83008 2.81836,-1.83008 1.32227,-1.85156 1.32031,-1.85156 1.76367,2.17578 1.76368,2.17773 1.66406,-2.37695 z m -43.281247,0.36914 1.693359,2.58399 1.69336,2.58398 2.427734,1.10547 2.427735,1.10742 -0.619141,2.59766 -0.619141,2.59766 -1.322265,2.5 -1.320313,2.5 -0.04102,-4.25 -0.03906,-4.25 h -0.933594 -0.933593 l 0.08594,3.01367 0.08594,3.01562 -0.720703,0.72071 -0.720704,0.7207 -1.910156,-2.48438 -1.910156,-2.48632 -0.02148,-1.75 -0.02148,-1.75 h -1 -1 v 1.3789 1.37696 l -1.666015,1.37304 -1.666016,1.3711 0.654297,-4 0.654297,-4 0.01172,-2.44141 0.01172,-2.43945 1.333985,1.82422 1.335937,1.82617 2.025391,-2.17188 z m 160.281247,8.95899 v 2.05859 2.0586 h -0.39453 -0.39258 l -0.5625,-1.4668 -0.56445,-1.46875 0.95703,-0.5918 z m 46,0 1.01563,0.62695 1.01562,0.62891 -0.57422,0.93164 -0.57617,0.92969 h -0.4414 -0.43946 v -1.5586 z m 3.25586,2.08594 1.3711,1.13867 1.37304,1.13867 v 2.96094 2.96093 l 2.85157,7.16602 2.85351,7.16602 0.55274,6.25 0.55273,6.25 h -1.41992 -1.41992 l -1.92578,-3.16602 -1.92579,-3.16602 -0.62304,-4.08398 -0.625,-4.08398 -2.07032,-7.21485 -2.07226,-7.21679 1.26367,-3.05079 z m -53.08203,0.80664 1.11328,1.11328 1.11524,1.11523 -0.0723,3.74805 -0.0703,3.74805 -2.45703,9.5 -2.45703,9.5 -1.19532,2.22656 -1.19726,2.22851 -2.06446,1.10547 -2.0664,1.10547 0.72656,-6.83398 0.72461,-6.83203 2.86328,-7.16602 2.86328,-7.16602 v -3.02539 -3.02343 l 1.08594,-0.67188 z m -160.982421,0.76757 1.986329,2.72852 1.988281,2.72852 1.166015,0.0156 1.167969,0.0156 1.339844,0.84961 1.337891,0.84765 -1.972657,3.88672 -1.972656,3.88477 -1.751953,5 -1.751953,5 -0.667969,9.5 -0.666016,9.5 -1.25,-2.95508 -1.25,-2.95508 -0.916015,-7.04492 -0.916016,-7.04492 0.002,-9.5 0.002,-9.5 2.0625,-2.47852 z m 45.349611,0.29493 1.97851,2.1914 1.98047,2.19141 -0.0605,11.13867 -0.0606,11.14063 -1.33594,7.78125 -1.33789,7.7832 -0.70703,0.43555 -0.70703,0.4375 -0.57227,-8.71875 -0.57422,-8.71875 -3.12695,-8.5 -3.125,-8.5 -0.19726,-1.46094 -0.19532,-1.46289 2,-0.38672 2,-0.38867 2.01953,-2.48242 z m 163.66406,3.66211 1.45117,4 1.45313,4 2.06055,8.85937 2.05859,8.85742 -1.9707,2.64258 -1.97071,2.64063 -1.55078,0.30664 -1.55078,0.30468 -0.75781,-1.22656 -0.75781,-1.22656 -0.69532,-11.07813 -0.69531,-11.08007 1.46289,-3.5 z m -42.44141,0.14453 1.57422,3.04492 1.57422,3.04297 -0.76562,11.38476 -0.76367,11.38282 -1.09766,1.95703 -1.09766,1.95703 -3.09375,-3.3125 -3.09375,-3.3125 v -0.85547 -0.85547 l 1.98047,-8.28906 1.98047,-8.28906 1.40234,-3.92774 z m -130.56835,6.91992 1.39062,2.46875 1.39063,2.4668 1.93945,6.5 1.94141,6.5 0.62109,6.25 0.62109,6.25 h -0.47851 -0.47852 l -2.11523,-5.6543 -2.11524,-5.65234 -0.89062,-4.59766 -0.89063,-4.5957 -0.46679,-4.9668 z m -26.445317,0.47265 -0.474609,4.73243 -0.472656,4.73047 -1.332032,6 -1.333984,6 -1.998047,4.5 -1.998047,4.5 -0.07031,-1.0254 -0.07031,-1.02734 1.039063,-8.29101 1.039062,-8.29297 2.025391,-5.41211 2.02539,-5.41211 0.810547,-0.50196 z m -15.308594,2.4629 0.658203,11 0.660157,11 1.783203,7 1.785156,7 0.824219,0.55273 0.824219,0.55078 1.015625,5.36328 1.017578,5.36328 -0.976563,3.08399 -0.974609,3.08594 -0.857422,3 -0.857422,3 -4.421875,0.19531 -4.421875,0.19336 -1.25,-0.52735 -1.25,-0.52734 v -1.01172 -1.01367 l 1.896485,-2.66211 1.896484,-2.66406 1.130859,-4.19922 1.13086,-4.19922 0.972656,-0.59961 0.972656,-0.60156 v -3.24805 -3.24805 l -2.029297,-10.94335 -2.029297,-10.94336 1.25,-7 z m 56.949221,1 0.68554,3 0.6875,3 0.10352,7 0.10352,7 -1.39454,6 -1.39453,6 -0.26757,4 -0.26563,4 1.66602,4 1.66601,4 2.58789,4.89257 2.58985,4.89258 -1.33008,0.8418 -1.32813,0.84375 -4.1914,0.0137 -4.19141,0.0156 -0.72461,-1.17188 -0.72461,-1.17383 -0.97656,-4.07617 -0.97656,-4.07812 0.125,-5.4004 0.12304,-5.40234 1.34961,-1.59766 1.34961,-1.5996 1.79102,-8.5 1.78906,-8.5 0.57422,-9 z m 107.10937,16.66015 3.36133,3.66797 3.36133,3.66602 -3.55078,7.0039 -3.54883,7.00196 -0.64062,5.5 -0.63868,5.5 0.9668,-1.37696 0.96484,-1.3789 1.11133,0.6875 1.11328,0.6875 v 2.38086 2.38281 l -1,0.61719 -1,0.61914 v 2.24023 2.24023 l -1.20117,1.20118 -1.19922,1.19922 h -2.17773 -2.17774 l -1.20703,-1.45508 -1.20703,-1.45508 0.91016,-17.40234 0.91015,-17.4043 3.42578,-3.06055 z m 59,0.0312 3.13282,2.6543 3.13476,2.6543 0.6875,5.09375 0.68945,5.09179 0.29688,12.90821 0.29883,12.90625 -0.99414,1.25 -0.99219,1.25 -1.62695,-0.0293 -1.62696,-0.0312 -1.75,-1.01953 -1.75,-1.01953 v -2.39063 -2.39062 l -1,-0.61914 -1,-0.61719 v -2.27539 -2.27344 l 0.65821,-0.6582 0.65625,-0.65821 1.34375,1.11329 1.34179,1.11523 v -3.09961 -3.09961 l -2.47656,-6.57812 -2.47461,-6.57813 -1.61133,-2.72461 -1.60937,-2.72656 3.33594,-3.62305 z" />
</svg>
